<svg xmlns="http://www.w3.org/2000/svg" viewBox="0 0 512 512"><path fill="#0000FF" d="M157.32 442.4c4.17 3.96 9.79 6.41 15.99 6.41 12.83 0 23.23-10.4 23.23-23.23v-76.49H64l92.48 92.48.84.84Z"/><path fill="#0000FF" d="M64 349.09h267.19c.1 0 .19.01.29.01s.19-.01.29-.01c6.03-.07 11.48-2.45 15.57-6.27l1.09-1.09 108.55-108.55.43-.43c4.08-4.19 6.6-9.9 6.6-16.2s-2.52-12.02-6.6-16.2l-.43-.43L348.24 91.18l-.68-.68c-4.17-4-9.83-6.48-16.07-6.48H87.23c-6.42 0-12.22 2.6-16.43 6.81-4.2 4.2-6.81 10.01-6.81 16.43v241.85"/><path fill="#000c94" d="m191.04 161.39-90.63 131.83h181.27l-90.64-131.83z"/><path fill="#00aeef" d="m281.68 210.83-65.92 82.39H347.6l-65.92-82.39z"/><path fill="none" d="M0 0h512v512H0z"/><path fill="#fff" d="m314.38 141.3 8.14-7.5 2.8 10.71 10.89-1.91-3.43 10.52 10.2 4.29-8.58 6.99 6.26 9.12-11 1.24.34 11.06-9.92-4.9-5.7 9.48-5.69-9.48-9.92 4.9.33-11.06-10.99-1.24 6.26-9.12-8.58-6.99 10.2-4.29-3.44-10.52 10.9 1.91 2.8-10.71 8.13 7.5z"/></svg>

