<svg xmlns="http://www.w3.org/2000/svg" viewBox="0 0 512 512">
  <path fill="#00f" d="M153 483.54c14.17 0 25.69-11.53 25.69-25.7v-91.46H25.24l110.1 110.1c4.81 4.55 11.07 7.06 17.65 7.06ZM348.33 360.4c.12 0 .23-.01.33-.01 6.38-.08 12.48-2.53 17.17-6.91l1.3-1.31 134.59-134.59c4.68-4.8 7.27-11.17 7.27-17.89s-2.59-13.09-7.3-17.92l-.5-.5L366.05 46.12c-4.77-4.58-11.08-7.12-17.73-7.12H46.69c-6.86 0-13.32 2.67-18.17 7.53-4.85 4.85-7.53 11.31-7.53 18.17v295.69h326.98c.13 0 .25 0 .36.01Z"/>
  <path fill="#000c94" d="M174.9 131.57 62.97 294.39h223.87L174.9 131.57z"/>
  <path fill="#00aeef" d="m286.84 192.63-81.41 101.76h162.81l-81.4-101.76z"/>
  <path fill="none" d="M0 0h512v512H0z"/>
  <path fill="#fff" d="m327.22 106.76 10.05-9.26 3.45 13.23 13.46-2.36-4.24 12.99 12.59 5.3-10.59 8.63 7.73 11.26-13.57 1.54.41 13.66-12.25-6.06-7.04 11.72-7.03-11.72-12.25 6.06.41-13.66-13.58-1.54 7.74-11.26-10.6-8.63 12.6-5.3-4.25-12.99 13.46 2.36 3.45-13.23 10.05 9.26z"/>
</svg>